<?xml version="1.0" encoding="UTF-8"?>
<svg width="24px" height="24px" viewBox="0 0 24 24" version="1.1" xmlns="http://www.w3.org/2000/svg">
    <g stroke="none" stroke-width="1" fill="none" fill-rule="evenodd">
        <path d="M18.4434932,12.2626143 C18.4345239,10.3932117 19.4648936,9.09303597 21.5466997,8.12766138 C20.3764616,6.45644824 18.6239648,5.57023535 16.3187402,5.45592165 C14.1399348,5.34457063 11.7855102,6.82209694 10.9533152,6.82209694 C10.0860322,6.82209694 8.03585897,5.51086658 6.30722548,5.51086658 C3.22787253,5.55477417 0,7.93514105 0,12.7823836 C0,14.3481415 0.347025275,15.9765809 1.04107583,17.6677205 C1.93809595,19.8505481 4.91797986,24.0512533 8.02485433,23.9937169 C9.5935962,23.9669578 10.6900538,22.8933988 12.7088606,22.8933988 C14.6845795,22.8933988 15.6978592,23.9937169 17.4175134,23.9937169 C20.5499542,23.9579843 23.2392853,20.1397925 24.0922173,17.9480175 C19.8209962,16.1185925 18.4434932,12.3022942 18.4434932,12.2626143 Z M15.0936972,3.81770341 C16.8943753,1.69585319 16.7212909,0 16.6672756,0 C15.3167949,0.0666627822 13.7391063,0.933875673 12.8330635,1.99514106 C11.8377838,3.1313816 11.2645728,4.5301938 11.3995421,5.42743403 C12.8600781,5.53878505 14.2195876,4.73061629 15.0936972,3.81770341 Z" fill="currentColor"></path>
    </g>
</svg> 