<?xml version="1.0" encoding="UTF-8"?>
<svg width="24" height="24" viewBox="0 0 24 24" fill="none" xmlns="http://www.w3.org/2000/svg">
  <path d="M17.0754 12.5C17.0654 10.57 18.6454 9.65 18.7254 9.61C17.8054 8.29 16.3854 8.1 15.8754 8.08C14.6654 7.96 13.4954 8.8 12.8754 8.8C12.2454 8.8 11.2754 8.1 10.2654 8.12C8.9454 8.14 7.7154 8.88 7.0454 10.05C5.6554 12.45 6.6854 16.03 8.0154 17.95C8.6754 18.89 9.4554 19.94 10.4854 19.91C11.4854 19.88 11.8554 19.28 13.0654 19.28C14.2654 19.28 14.6154 19.91 15.6654 19.89C16.7454 19.87 17.4254 18.93 18.0654 17.98C18.8154 16.91 19.1254 15.86 19.1354 15.81C19.1154 15.8 17.0854 14.97 17.0754 12.5Z" fill="black"/>
  <path d="M15.6304 7.28C16.1904 6.6 16.5804 5.69 16.4704 4.79C15.6704 4.82 14.6704 5.34 14.0904 6.01C13.5704 6.6 13.1104 7.54 13.2404 8.41C14.1404 8.47 15.0704 7.96 15.6304 7.28Z" fill="black"/>
</svg> 