<?xml version="1.0" encoding="UTF-8"?>
<svg width="24" height="24" viewBox="0 0 24 24" fill="none" xmlns="http://www.w3.org/2000/svg">
  <path d="M23.766 12.2764C23.766 11.4607 23.6999 10.6406 23.5588 9.83807H12.24V14.4591H18.7217C18.4528 15.9494 17.5885 17.2678 16.323 18.1056V21.1039H20.19C22.4608 19.0139 23.766 15.9274 23.766 12.2764Z" fill="#4285F4"/>
  <path d="M12.24 24.0008C15.4764 24.0008 18.2058 22.9382 20.1944 21.1039L16.3274 18.1055C15.2516 18.8375 13.8626 19.252 12.24 19.252C9.0362 19.252 6.3106 17.1399 5.3646 14.3003H1.3916V17.3912C3.37 21.4434 7.4854 24.0008 12.24 24.0008Z" fill="#34A853"/>
  <path d="M5.36451 14.3003C5.14451 13.5681 5.01951 12.7954 5.01951 12.0006C5.01951 11.2058 5.14451 10.4331 5.36451 9.70087V6.61005H1.39157C0.557572 8.23005 0.0939941 10.0649 0.0939941 12.0006C0.0939941 13.9363 0.557572 15.7711 1.39157 17.3911L5.36451 14.3003Z" fill="#FBBC05"/>
  <path d="M12.24 4.74966C14.0291 4.74966 15.6374 5.36062 16.9037 6.56968L20.3285 3.14489C18.2007 1.19488 15.4714 0 12.24 0C7.4854 0 3.37 2.55742 1.3916 6.61005L5.3644 9.70087C6.3104 6.86131 9.036 4.74966 12.24 4.74966Z" fill="#EA4335"/>
</svg> 